inDegrees=yes
DataType=double
version=3
OpenSimVersion=4.5-2024-07-22-fc2981e9e
endheader
time	pelvis_tx	pelvis_ty	pelvis_tz	pelvis_tilt	pelvis_list	pelvis_rotation	hip_flexion_r	hip_adduction_r	hip_rotation_r	knee_angle_r	ankle_angle_r	hip_flexion_l	hip_adduction_l	hip_rotation_l	knee_angle_l	ankle_angle_l	lumbar_extension	lumbar_bending	lumbar_rotation	arm_flex_r	arm_add_r	arm_rot_r	elbow_flex_r	pro_sup_r	arm_flex_l	arm_add_l	arm_rot_l	elbow_flex_l	pro_sup_l	subtalar_angle_r	mtp_angle_r	subtalar_angle_l	mtp_angle_l	wrist_flex_r	wrist_dev_r	wrist_flex_l	wrist_dev_l	R.ASIS_tx	R.ASIS_ty	R.ASIS_tz	L.ASIS_tx	L.ASIS_ty	L.ASIS_tz	V.Sacral_tx	V.Sacral_ty	V.Sacral_tz	R.Thigh.Upper_tx	R.Thigh.Upper_ty	R.Thigh.Upper_tz	R.Thigh.Front_tx	R.Thigh.Front_ty	R.Thigh.Front_tz	R.Thigh.Rear_tx	R.Thigh.Rear_ty	R.Thigh.Rear_tz	L.Thigh.Upper_tx	L.Thigh.Upper_ty	L.Thigh.Upper_tz	L.Thigh.Front_tx	L.Thigh.Front_ty	L.Thigh.Front_tz	L.Thigh.Rear_tx	L.Thigh.Rear_ty	L.Thigh.Rear_tz	R.Shank.Upper_tx	R.Shank.Upper_ty	R.Shank.Upper_tz	R.Shank.Front_tx	R.Shank.Front_ty	R.Shank.Front_tz	R.Shank.Rear_tx	R.Shank.Rear_ty	R.Shank.Rear_tz	L.Shank.Upper_tx	L.Shank.Upper_ty	L.Shank.Upper_tz	L.Shank.Front_tx	L.Shank.Front_ty	L.Shank.Front_tz	L.Shank.Rear_tx	L.Shank.Rear_ty	L.Shank.Rear_tz	R.Heel_tx	R.Heel_ty	R.Heel_tz	R.Midfoot.Sup_tx	R.Midfoot.Sup_ty	R.Midfoot.Sup_tz	R.Midfoot.Lat_tx	R.Midfoot.Lat_ty	R.Midfoot.Lat_tz	R.Toe.Tip_tx	R.Toe.Tip_ty	R.Toe.Tip_tz	L.Heel_tx	L.Heel_ty	L.Heel_tz	L.Midfoot.Sup_tx	L.Midfoot.Sup_ty	L.Midfoot.Sup_tz	L.Midfoot.Lat_tx	L.Midfoot.Lat_ty	L.Midfoot.Lat_tz	L.Toe.Tip_tx	L.Toe.Tip_ty	L.Toe.Tip_tz	Sternum_tx	Sternum_ty	Sternum_tz	R.Acromium_tx	R.Acromium_ty	R.Acromium_tz	L.Acromium_tx	L.Acromium_ty	L.Acromium_tz	R.Bicep_tx	R.Bicep_ty	R.Bicep_tz	L.Bicep_tx	L.Bicep_ty	L.Bicep_tz	R.Elbow_tx	R.Elbow_ty	R.Elbow_tz	L.Elbow_tx	L.Elbow_ty	L.Elbow_tz	R.Wrist.Med_tx	R.Wrist.Med_ty	R.Wrist.Med_tz	R.Wrist.Lat_tx	R.Wrist.Lat_ty	R.Wrist.Lat_tz	L.Wrist.Med_tx	L.Wrist.Med_ty	L.Wrist.Med_tz	L.Wrist.Lat_tx	L.Wrist.Lat_ty	L.Wrist.Lat_tz	R.Toe.Lat_tx	R.Toe.Lat_ty	R.Toe.Lat_tz	R.Toe.Med_tx	R.Toe.Med_ty	R.Toe.Med_tz	L.Toe.Lat_tx	L.Toe.Lat_ty	L.Toe.Lat_tz	L.Toe.Med_tx	L.Toe.Med_ty	L.Toe.Med_tz	R.Temple_tx	R.Temple_ty	R.Temple_tz	L.Temple_tx	L.Temple_ty	L.Temple_tz	Top.Head_tx	Top.Head_ty	Top.Head_tz
2.485726907630522	0.840411318235294	0.9931057709331442	-0.1964976055894165	2.231362121653672	-3.666831744828751	-4.28531142669502	23.61407966929839	9.22769094825895	0.3464695689959777	-14.84592108325308	2.906127080285877	-26.69501224478379	-2.928982051089106	-12.47999484448147	-47.60885503920164	-30.21321283285612	-7.011340606702107	1.31516180238132	-12.14606220300495	-44.92485461003068	-29.28527884151903	8.508974222601001	72.37042088985588	104.4966407095323	-6.729738613482171	-23.67887957579966	2.889682801008755	99.48284569810059	107.441873621082	0	0	0	0	0	0	0	0	0.8525091800661468	1.033057139154264	-0.07270628557287974	0.8676463536522561	1.017798407741554	-0.3221596361941885	0.6702377866241436	1.045713771722183	-0.2190669047720293	0.8926625193479801	0.7414240352137962	-0.034492630356721	0.9764573025490196	0.7289046734679895	-0.1051769110654382	0.9136245449397591	0.6451902799149538	-0.05097945961729273	0.7158186192912829	0.7251306080392155	-0.3641696404370423	0.7543858822230098	0.6356473724875973	-0.2962374226033546	0.6515030112827783	0.6126504257500588	-0.3553754688046303	0.9743863062721474	0.4604260561209543	-0.078406171178833	1.044954013498701	0.4134146381974957	-0.1277096437184031	0.9873496524757854	0.3766953017859673	-0.07852124653201042	0.4908527950082687	0.5209307610866997	-0.3529597328254193	0.458945749418852	0.4271697843255373	-0.3115195377226553	0.4224978534231044	0.5087088401630049	-0.3502805947696669	0.9810514734679893	0.06034101570753602	-0.1778082619560596	1.117458210344909	0.1094088235908338	-0.2108716511079613	1.095641624056225	0.08103311106307576	-0.112553081741082	1.235841120588235	0.141581521240255	-0.1772247267611624	0.1652962825584694	0.4543812160335463	-0.273770751263879	0.154325741686747	0.3131641034490908	-0.2235577787219467	0.1200190155421687	0.3215055330002366	-0.3188533072289157	0.1353746793975902	0.1768237409213327	-0.2489215240349635	0.9041989840113395	1.399007874838176	-0.186665022182849	0.7396724747318686	1.488497196886369	-0.02120761169147172	0.8200397886534373	1.49305656248996	-0.4083506553059296	0.5608323285778408	1.383873453512875	0.001640768785731254	0	0	0	0.4751540816772975	1.322396222428537	0.02271256212615179	0.7969286832506496	1.181272907202929	-0.4993528586746988	0.5693756696220177	1.082374929801559	0.07060828395464222	0.6166161019844083	1.085544299414127	0.02639523873139627	1.027196626293409	1.150668855646114	-0.387031652508859	1.010053664571226	1.202280065856366	-0.3471963085353177	1.184828586924167	0.09644365476966676	-0.1041837210063785	1.188714492709662	0.09955262893219921	-0.2152215681030003	0.09671200972832501	0.24791615806284	-0.3257098975620129	0.1210704948806992	0.2464732636900547	-0.2134998272619892	0.9593280900590598	1.587308518613276	-0.1266550849043231	0.9768968196645405	1.591779805901252	-0.2683277773210489	1.044134408962911	1.657128461478856	-0.2019331644956296
2.505773092369478	0.8367782815024805	0.9807347871214266	-0.1938848030935506	2.129840697465155	-5.747573024818139	-4.590078854714153	25.42404887931259	11.91288636984413	-0.4119102267883578	-21.98128485263782	5.671404571285219	-22.55029983353758	-6.781312722257347	-13.77656223586937	-59.05303685924073	-28.67558822757614	-7.490590597828979	3.95683754772035	-11.16613753459601	-41.51633207686502	-30.03035967772385	9.412687827714413	71.10823891854828	105.0304513979282	-7.38679298713916	-23.01359961430072	4.255539850838685	94.87010141623659	107.9724252869525	0	0	0	0	0	0	0	0	0.8503550176470588	1.022036956004016	-0.07130222350106305	0.8662648472631702	1.004740328027403	-0.3209915459118828	0.6673088306732813	1.030567823345145	-0.2191015723257737	0.893751413948736	0.7311641622312778	-0.03485742713442004	0.9780903939617293	0.7195785408469169	-0.105152451475313	0.9162512981537917	0.6356652950342544	-0.05276152299669268	0.72555464141271	0.7069754394613745	-0.3641340429163714	0.7727513847306878	0.6187237122915187	-0.3005217252149777	0.670866897300969	0.5903971037467511	-0.3574961413099457	0.9723098185329553	0.4513554911363097	-0.08087758718166789	1.036075906695015	0.3995372788837701	-0.132841216419797	0.9778142118438458	0.3678297951889911	-0.0817509109083393	0.5175143546267429	0.5076120866855655	-0.3549662375702812	0.4757548511268609	0.417316746869832	-0.3163401882612805	0.4482359117339955	0.5035923097944718	-0.3515476829270022	0.943733669673989	0.06061685713205768	-0.1813290286522562	1.080073259834632	0.0975756244200328	-0.2171800608776283	1.056750975686273	0.07417164926883993	-0.1172021055504371	1.20391926103827	0.1252859072442708	-0.1831010311150486	0.1876195685235064	0.4803342558658166	-0.2730110479151902	0.1610471485991026	0.3382653897779357	-0.2277546495794945	0.1275148183876687	0.3523413594294832	-0.3228206456957242	0.1291156763453816	0.2008412332270262	-0.2572103801759983	0.9044419926246161	1.382039770510276	-0.1857892642546657	0.7402946838955823	1.471546811074887	-0.01676404835931952	0.8197466651405623	1.479581969205055	-0.4068228320080321	0.5656348418473897	1.360089680203165	0.01063938905504394	0	0	0	0.4821584533345147	1.297531292788802	0.0338261755043707	0.7873320750956766	1.168701757004488	-0.4987799936487125	0.5849376561906454	1.060967085615402	0.08093561340893007	0.6305733202988428	1.064904274304275	0.03494698053271929	1.015291319068037	1.116358787093077	-0.3891398187810065	1.001783530008268	1.167223848971178	-0.3466398771131586	1.148171949403495	0.08338476906094937	-0.1092927176139855	1.151152497121426	0.08359941060240926	-0.2206053867387197	0.09677869843964115	0.2802115359910235	-0.3320147467068275	0.1204702825962676	0.2749358559862987	-0.2199819408918026	0.9608203487703756	1.573776558062839	-0.1248701520092133	0.977082804069218	1.578390590597684	-0.2663679575868179	1.045376329005433	1.643403667135601	-0.200472371015828
2.525819277108434	0.831935132379518	0.9665847537951806	-0.1922329027710843	2.315620882108437	-7.470377463433746	-4.499117102921685	27.49466390840363	13.98535360530122	-1.794168393253023	-32.18777598978923	9.468064203253041	-17.720466274759	-10.31297066695785	-13.42882051698794	-70.2529993734037	-26.30686204999998	-8.449567315000008	6.388276160783148	-10.08204557743975	-36.97424349409635	-30.60974049915663	10.733994114247	69.89199340704818	105.7833747344578	-8.039607450873499	-22.42345908692771	6.236322778734957	88.93764451632525	108.6596043831928	0	0	0	0	0	0	0	0	0.8473899302108433	1.010648096506024	-0.07044890813253012	0.862486154126506	0.9898184968975903	-0.3205160452409639	0.6624886168674698	1.014892661204819	-0.2183711486445783	0.8929995615963855	0.720313948945783	-0.03503029496987952	0.9789295519578313	0.7094319398493976	-0.1035244378915662	0.9169542363253012	0.6252267763253011	-0.05364077195783132	0.7389848668975905	0.6875393072891565	-0.365226610873494	0.7942399906927713	0.6021558356325301	-0.3044303776807229	0.6953484366265062	0.5665220528614456	-0.3602502324397591	0.9678007362951807	0.442547381566265	-0.08275854421686749	1.021370204126506	0.3844670961144577	-0.1381020806927711	0.9623662060843372	0.3598443768674698	-0.08450860397590364	0.5519988210240967	0.4912005575602408	-0.3579005271084338	0.5026185466867472	0.4049012827108433	-0.3213562439457832	0.4827853389156629	0.4939888591265059	-0.3539122475301205	0.8862262595180718	0.06304439256024098	-0.1843898476204819	1.023728549186746	0.08536500496987943	-0.2230544011445783	0.9983453741867465	0.06796089695783128	-0.1215444900301205	1.154155396325301	0.105890484759036	-0.188549199186747	0.2197563364759039	0.4978794984036146	-0.2734638854518072	0.1823954771385544	0.3550389550301206	-0.2325134501506025	0.1502458893072291	0.3733205773795182	-0.3275123532228916	0.141770506987952	0.2176485786144579	-0.2649557090361446	0.9029630148795181	1.36219543066265	-0.1861197038554217	0.7420205410542169	1.451712546716867	-0.01076906237951802	0.8183509289759037	1.464503032801205	-0.4057954981927711	0.5740147408433736	1.331094038042168	0.02256466987951817	0	0	0	0.4939851784638555	1.266543285180723	0.04790156512048204	0.7740733652710842	1.154786297710843	-0.4986422912048193	0.6090450185542171	1.035279093795181	0.09181100906626515	0.6522851207831327	1.040748771084337	0.04349470102409645	0.9961654010843372	1.074763633373494	-0.3947225318072289	0.9871891590361445	1.124028217620482	-0.3485648202409639	1.092253855060241	0.06932263638554206	-0.1136466693072289	1.094676477108433	0.06577165518072275	-0.2253278089759036	0.1148221125000002	0.3023780942469881	-0.3388089088554218	0.1370027693975905	0.2939536901204821	-0.2271420835843374	0.9620914984036145	1.559102690361446	-0.1235285731024096	0.9769873847590361	1.564082786566265	-0.2649417043072289	1.046589293343374	1.628505990783133	-0.1995959878012048
2.54586546184739	0.8265975489038506	0.9531656092853765	-0.1917640017422632	2.763522149950397	-8.542349965727629	-3.995156491579249	27.99196732065674	15.17421373143399	-2.96233806030122	-41.49654147911541	13.2019752288602	-12.03545932766941	-12.86975412589302	-11.57648043345614	-80.46310089409771	-23.23319588062717	-9.708428156279254	8.272693323351078	-8.875952794091642	-31.65768371708709	-30.86915534634184	12.19630787997285	68.92644953096857	106.6237285815639	-8.659115241152856	-21.8296243832282	8.877192357091939	81.89797152454513	109.0652060841543	0	0	0	0	0	0	0	0	0.8437104090904795	1.000556685894165	-0.0700603859685802	0.8567014555480745	0.975414855303567	-0.3206402442912828	0.6563367507677769	1.001303914356248	-0.2168402555716985	0.8880572015887076	0.7091280498228205	-0.03501613160996929	0.9755281984904323	0.6975784534951569	-0.1015160866737538	0.9116703772407275	0.6138504828868413	-0.05388273829553508	0.7573543145617768	0.670559712564375	-0.3673219686050083	0.8185849103508154	0.5895683569040868	-0.3063469929636192	0.7255557643645173	0.5453372260855183	-0.36326250389322	0.9560736723753837	0.4327287690810298	-0.08429106131230808	0.9981822965721706	0.3690320038684146	-0.1430571146763525	0.9388152266607603	0.3517957367198203	-0.08686903149303099	0.5935497095440593	0.4745971018603825	-0.3616826221273329	0.5394414617528945	0.3918849725313015	-0.3254013654122372	0.5248285861965516	0.4819328638908574	-0.3574242426494213	0.8154908286451678	0.0660346103945193	-0.1866266073375857	0.9550841369879507	0.07510458258091174	-0.2276850680592961	0.927810416337112	0.06324084403496333	-0.1250606882482873	1.091382486204818	0.08683843625679159	-0.1930814091507206	0.2583330773730221	0.5054241133156154	-0.2753489275537444	0.2170722129069224	0.3614861852941177	-0.2370997890373258	0.1869535487550207	0.3816716726553273	-0.3323866415615404	0.1741854265402793	0.2244237182612805	-0.2711047783498702	0.8999918837762815	1.342782182119064	-0.1879610891861564	0.7451928706449328	1.43244546733168	-0.004210277121426785	0.8151204604334986	1.450915244174344	-0.4051408392546657	0.5863383597732107	1.300855104475549	0.03575828741908832	0	0	0	0.5114734718781009	1.233151065898889	0.06350869877510064	0.7570988978112447	1.142879551776518	-0.4983450094531066	0.6418246387502958	1.009414107939995	0.1015156551193009	0.6819272085908343	1.017177479542877	0.05075817470706365	0.9686397678136069	1.030848924796834	-0.4037273830628397	0.965215118278998	1.077546914612567	-0.3534788333770377	1.02365632057406	0.05710368018780989	-0.1168650730911883	1.025741786914717	0.04971814051145737	-0.2289311668261281	0.1505777112272626	0.311102207309237	-0.3452401172194662	0.1703256028325071	0.3007306719395229	-0.2339617242652966	0.9629223142901017	1.545462429218049	-0.1228255297318687	0.9765085618367588	1.551023423905032	-0.2642447641991495	1.04754346454524	1.614595432622254	-0.1994267943940468
